<?xml version="1.0" encoding="utf-8"?>
<!-- Generator: Adobe Illustrator 16.0.3, SVG Export Plug-In . SVG Version: 6.00 Build 0)  -->
<!DOCTYPE svg PUBLIC "-//W3C//DTD SVG 1.1//EN" "http://www.w3.org/Graphics/SVG/1.1/DTD/svg11.dtd">
<svg version="1.1" id="Layer_1" xmlns="http://www.w3.org/2000/svg" xmlns:xlink="http://www.w3.org/1999/xlink" x="0px" y="0px"
	 width="40px" height="120px" viewBox="0 0 40 120" enable-background="new 0 0 40 120" xml:space="preserve">
<g>
	<g>
		<path fill="#231F20" d="M34.655,21.477h-2.141v-1.162c0-1.358-1.111-2.468-2.47-2.468h-24.7c-1.357,0-2.471,1.11-2.471,2.468
			v18.773c0,1.358,1.113,2.471,2.471,2.471h2.14v1.159c0,1.358,1.112,2.471,2.47,2.471h24.701c1.358,0,2.47-1.113,2.47-2.471V23.945
			C37.125,22.587,36.014,21.477,34.655,21.477z M4.851,20.315c0-0.26,0.231-0.493,0.494-0.493h24.7c0.262,0,0.494,0.232,0.494,0.493
			v3.356H4.851V20.315z M4.851,25.171h25.688v4.157H4.851V25.171z M4.851,30.078h25.688v4.531H4.851V30.078z M4.851,39.088v-3.729
			h25.688v3.729c0,0.263-0.232,0.495-0.494,0.495h-24.7C5.082,39.583,4.851,39.352,4.851,39.088z M35.149,42.718
			c0,0.263-0.232,0.495-0.494,0.495H9.954c-0.262,0-0.494-0.232-0.494-0.495V41.56h20.585c1.358,0,2.47-1.113,2.47-2.471v-0.1h2.635
			V42.718z M35.149,38.239h-2.635v-4.531h2.635V38.239z M35.149,32.958h-2.635v-4.157h2.635V32.958z M35.149,27.301h-2.635v-3.849
			h2.141c0.262,0,0.494,0.232,0.494,0.493V27.301z"/>
		<rect fill="none" width="40" height="60"/>
	</g>
	<g>
		<path fill="#FFFFFF" d="M34.655,81.477h-2.141v-1.162c0-1.358-1.111-2.468-2.47-2.468h-24.7c-1.357,0-2.471,1.11-2.471,2.468
			v18.773c0,1.358,1.113,2.471,2.471,2.471h2.14v1.159c0,1.358,1.112,2.471,2.47,2.471h24.701c1.358,0,2.47-1.113,2.47-2.471V83.945
			C37.125,82.587,36.014,81.477,34.655,81.477z M4.851,80.315c0-0.26,0.231-0.493,0.494-0.493h24.7c0.262,0,0.494,0.232,0.494,0.493
			v3.356H4.851V80.315z M4.851,85.171h25.688v4.157H4.851V85.171z M4.851,90.078h25.688v4.531H4.851V90.078z M4.851,99.088v-3.729
			h25.688v3.729c0,0.263-0.232,0.495-0.494,0.495h-24.7C5.082,99.583,4.851,99.352,4.851,99.088z M35.149,102.718
			c0,0.263-0.232,0.495-0.494,0.495H9.954c-0.262,0-0.494-0.232-0.494-0.495v-1.159h20.585c1.358,0,2.47-1.113,2.47-2.471v-0.1
			h2.635V102.718z M35.149,98.239h-2.635v-4.531h2.635V98.239z M35.149,92.958h-2.635v-4.157h2.635V92.958z M35.149,87.301h-2.635
			v-3.849h2.141c0.262,0,0.494,0.232,0.494,0.493V87.301z"/>
		<rect y="60" fill="none" width="40" height="60"/>
	</g>
</g>
</svg>
