<?xml version="1.0" encoding="utf-8"?>
<!-- Generator: Adobe Illustrator 15.1.0, SVG Export Plug-In . SVG Version: 6.00 Build 0)  -->
<!DOCTYPE svg PUBLIC "-//W3C//DTD SVG 1.1//EN" "http://www.w3.org/Graphics/SVG/1.1/DTD/svg11.dtd">
<svg version="1.1" id="Layer_1" xmlns="http://www.w3.org/2000/svg" xmlns:xlink="http://www.w3.org/1999/xlink" x="0px" y="0px"
	 width="32px" height="32px" viewBox="0.345 0.345 32 32" enable-background="new 0.345 0.345 32 32" xml:space="preserve">
<g>
	<polygon fill="#3399FF" points="0.345,0.345 32.345,0.345 32.345,32.345 	"/>
	<g>
		<path fill="#FFFFFF" d="M16.647,3.037c0.023,0.028,0.039,0.058,0.05,0.088c0.011,0.029,0.017,0.061,0.017,0.098
			c0.002,0.036-0.001,0.08-0.007,0.133l-0.654,5.375c0.067-0.079,0.133-0.154,0.2-0.23c0.066-0.074,0.13-0.143,0.189-0.201
			l2.738-2.738L19.919,6.3l-4.504,4.504l-0.429-0.429c-0.067-0.067-0.112-0.135-0.135-0.201c-0.022-0.065-0.029-0.145-0.018-0.239
			l0.648-5.352c-0.061,0.072-0.122,0.143-0.185,0.212c-0.062,0.068-0.12,0.13-0.174,0.184l-2.767,2.765l-0.738-0.739l4.504-4.503
			l0.438,0.438C16.595,2.976,16.625,3.008,16.647,3.037z"/>
		<path fill="#FFFFFF" d="M23.762,10.142l-0.666,0.667l-2-2l-1.249,1.248l1.576,1.577l-0.645,0.643l-1.576-1.575l-1.274,1.275l2,2
			l-0.67,0.669l-2.84-2.84l4.503-4.504L23.762,10.142z"/>
		<path fill="#FFFFFF" d="M24.055,10.434l0.7,0.702c0.073,0.073,0.117,0.149,0.132,0.233c0.015,0.083,0.001,0.162-0.041,0.237
			l-1.928,3.46c-0.05,0.083-0.105,0.171-0.168,0.264c-0.062,0.095-0.129,0.193-0.2,0.296c0.104-0.07,0.204-0.136,0.303-0.192
			c0.098-0.059,0.19-0.109,0.28-0.153l3.579-1.81c0.064-0.031,0.142-0.041,0.229-0.033c0.089,0.01,0.168,0.049,0.239,0.12
			l0.246,0.247c0.071,0.073,0.113,0.148,0.125,0.229c0.01,0.081-0.001,0.162-0.034,0.24l-1.813,3.576
			c-0.086,0.173-0.193,0.361-0.327,0.563c0.191-0.138,0.371-0.255,0.536-0.355l3.461-1.927c0.063-0.04,0.141-0.052,0.229-0.038
			c0.088,0.014,0.167,0.056,0.237,0.126l0.657,0.655l-5.903,3.106l-0.756-0.756l2.093-4.062c0.025-0.055,0.053-0.11,0.087-0.169
			c0.033-0.058,0.068-0.119,0.105-0.18c-0.06,0.038-0.12,0.074-0.18,0.106c-0.059,0.032-0.113,0.062-0.167,0.089l-4.07,2.083
			l-0.761-0.759L24.055,10.434z"/>
	</g>
</g>
</svg>
