<?xml version="1.0" encoding="utf-8"?>
<!-- Generator: Adobe Illustrator 16.0.3, SVG Export Plug-In . SVG Version: 6.00 Build 0)  -->
<!DOCTYPE svg PUBLIC "-//W3C//DTD SVG 1.1//EN" "http://www.w3.org/Graphics/SVG/1.1/DTD/svg11.dtd">
<svg version="1.1" id="Layer_1" xmlns="http://www.w3.org/2000/svg" xmlns:xlink="http://www.w3.org/1999/xlink" x="0px" y="0px"
	 width="40px" height="120px" viewBox="0 0 40 120" enable-background="new 0 0 40 120" xml:space="preserve">
<g>
	<g>
		<g>
			<path fill="#231F20" d="M32.122,37.865c0,3.006-2.438,5.445-5.445,5.445H10.948c-3.006,0-5.445-2.439-5.445-5.445V22.135
				c0-3.006,2.439-5.445,5.445-5.445h15.729c0.757,0,1.513,0.151,2.213,0.473c0.17,0.076,0.302,0.246,0.34,0.435
				c0.038,0.208-0.019,0.397-0.17,0.548l-0.927,0.927c-0.113,0.113-0.283,0.189-0.435,0.189c-0.057,0-0.113-0.019-0.17-0.038
				c-0.284-0.076-0.567-0.113-0.852-0.113H10.948c-1.664,0-3.025,1.361-3.025,3.025v15.729c0,1.664,1.361,3.025,3.025,3.025h15.729
				c1.664,0,3.025-1.361,3.025-3.025v-4.802c0-0.151,0.057-0.302,0.17-0.416l1.21-1.21c0.133-0.132,0.284-0.189,0.435-0.189
				c0.076,0,0.151,0.019,0.228,0.057c0.227,0.094,0.378,0.302,0.378,0.548V37.865z M21.1,37.997c-0.604,0.605-1.55,0.605-2.154,0
				l-8.13-8.129c-0.605-0.605-0.605-1.55,0-2.155l2.08-2.08c0.604-0.605,1.55-0.605,2.154,0l4.973,4.972l12.232-12.232
				c0.604-0.605,1.55-0.605,2.154,0l2.08,2.08c0.605,0.605,0.605,1.55,0,2.155L21.1,37.997z"/>
		</g>
		<rect fill="none" width="40" height="60"/>
	</g>
	<g>
		<g>
			<path fill="#FFFFFF" d="M32.122,97.865c0,3.006-2.438,5.445-5.445,5.445H10.948c-3.006,0-5.445-2.439-5.445-5.445V82.135
				c0-3.006,2.439-5.445,5.445-5.445h15.729c0.757,0,1.513,0.151,2.213,0.473c0.17,0.076,0.302,0.246,0.34,0.435
				c0.038,0.208-0.019,0.397-0.17,0.548l-0.927,0.927c-0.113,0.113-0.283,0.189-0.435,0.189c-0.057,0-0.113-0.019-0.17-0.038
				c-0.284-0.076-0.567-0.113-0.852-0.113H10.948c-1.664,0-3.025,1.361-3.025,3.025v15.729c0,1.664,1.361,3.025,3.025,3.025h15.729
				c1.664,0,3.025-1.361,3.025-3.025v-4.802c0-0.151,0.057-0.302,0.17-0.416l1.21-1.21c0.133-0.132,0.284-0.189,0.435-0.189
				c0.076,0,0.151,0.019,0.228,0.057c0.227,0.094,0.378,0.302,0.378,0.548V97.865z M21.1,97.997c-0.604,0.605-1.55,0.605-2.154,0
				l-8.13-8.129c-0.605-0.605-0.605-1.55,0-2.155l2.08-2.08c0.604-0.605,1.55-0.605,2.154,0l4.973,4.972l12.232-12.232
				c0.604-0.605,1.55-0.605,2.154,0l2.08,2.08c0.605,0.605,0.605,1.55,0,2.155L21.1,97.997z"/>
		</g>
		<rect y="60" fill="none" width="40" height="60"/>
	</g>
</g>
</svg>
