<?xml version="1.0" encoding="utf-8"?>
<!-- Generator: Adobe Illustrator 16.0.3, SVG Export Plug-In . SVG Version: 6.00 Build 0)  -->
<!DOCTYPE svg PUBLIC "-//W3C//DTD SVG 1.1//EN" "http://www.w3.org/Graphics/SVG/1.1/DTD/svg11.dtd">
<svg version="1.1" id="Layer_1" xmlns="http://www.w3.org/2000/svg" xmlns:xlink="http://www.w3.org/1999/xlink" x="0px" y="0px"
	 width="40px" height="120px" viewBox="0 0 40 120" enable-background="new 0 0 40 120" xml:space="preserve">
<g>
	<g>
		<g>
			<path fill="#231F20" d="M30.816,24.199v18.984c0,0.874-0.709,1.582-1.582,1.582H7.086c-0.874,0-1.582-0.708-1.582-1.582V16.816
				c0-0.874,0.708-1.582,1.582-1.582h14.766c0.873,0,2.093,0.511,2.702,1.121l5.143,5.142
				C30.306,22.106,30.816,23.326,30.816,24.199z M28.707,25.781h-6.855c-0.873,0-1.582-0.708-1.582-1.582v-6.855H7.613v25.313
				h21.094V25.781z M12.359,27.891h11.602c0.297,0,0.527,0.23,0.527,0.527v1.055c0,0.297-0.23,0.527-0.527,0.527H12.359
				c-0.297,0-0.527-0.23-0.527-0.527v-1.055C11.832,28.121,12.063,27.891,12.359,27.891z M24.488,32.637v1.055
				c0,0.297-0.23,0.527-0.527,0.527H12.359c-0.297,0-0.527-0.23-0.527-0.527v-1.055c0-0.297,0.23-0.527,0.527-0.527h11.602
				C24.258,32.109,24.488,32.34,24.488,32.637z M24.488,36.855v1.055c0,0.297-0.23,0.527-0.527,0.527H12.359
				c-0.297,0-0.527-0.23-0.527-0.527v-1.055c0-0.297,0.23-0.527,0.527-0.527h11.602C24.258,36.328,24.488,36.559,24.488,36.855z
				 M22.379,23.672h6.196c-0.099-0.28-0.247-0.561-0.362-0.676l-5.158-5.158c-0.115-0.115-0.396-0.264-0.676-0.362V23.672z"/>
		</g>
		<rect fill="none" width="40" height="60"/>
	</g>
	<g>
		<g>
			<path fill="#FFFFFF" d="M30.816,84.199v18.984c0,0.874-0.709,1.582-1.582,1.582H7.086c-0.874,0-1.582-0.708-1.582-1.582V76.816
				c0-0.874,0.708-1.582,1.582-1.582h14.766c0.873,0,2.093,0.511,2.702,1.121l5.143,5.142
				C30.306,82.106,30.816,83.326,30.816,84.199z M28.707,85.781h-6.855c-0.873,0-1.582-0.708-1.582-1.582v-6.855H7.613v25.313
				h21.094V85.781z M12.359,87.891h11.602c0.297,0,0.527,0.23,0.527,0.527v1.055c0,0.297-0.23,0.527-0.527,0.527H12.359
				c-0.297,0-0.527-0.23-0.527-0.527v-1.055C11.832,88.121,12.063,87.891,12.359,87.891z M24.488,92.637v1.055
				c0,0.297-0.23,0.527-0.527,0.527H12.359c-0.297,0-0.527-0.23-0.527-0.527v-1.055c0-0.297,0.23-0.527,0.527-0.527h11.602
				C24.258,92.109,24.488,92.34,24.488,92.637z M24.488,96.855v1.055c0,0.297-0.23,0.527-0.527,0.527H12.359
				c-0.297,0-0.527-0.23-0.527-0.527v-1.055c0-0.297,0.23-0.527,0.527-0.527h11.602C24.258,96.328,24.488,96.559,24.488,96.855z
				 M22.379,83.672h6.196c-0.099-0.28-0.247-0.561-0.362-0.676l-5.158-5.158c-0.115-0.115-0.396-0.264-0.676-0.362V83.672z"/>
		</g>
		<rect y="60" fill="none" width="40" height="60"/>
	</g>
</g>
</svg>
